<svg width="38" height="38" viewBox="0 0 38 38" fill="none" xmlns="http://www.w3.org/2000/svg">
<circle cx="19" cy="19" r="18" stroke="#2F89FE" stroke-width="2"/>
<path d="M9.40822 29.1066C8.36695 29.1066 7.48188 28.7397 6.75299 28.0061C6.02411 27.2724 5.65967 26.3816 5.65967 25.3335C5.65967 24.2854 6.02411 23.3946 6.75299 22.6609C7.48188 21.9273 8.36695 21.5605 9.40822 21.5605C9.6373 21.5605 9.86637 21.5814 10.0955 21.6233C10.3245 21.6653 10.5536 21.7282 10.7827 21.812L15.7808 14.9262C15.3642 14.465 15.031 13.9462 14.7811 13.3698C14.5312 12.7934 14.4063 12.1698 14.4063 11.499C14.4063 10.1155 14.8957 8.93123 15.8745 7.94604C16.8533 6.96085 18.0299 6.46826 19.4043 6.46826C20.7788 6.46826 21.9554 6.96085 22.9342 7.94604C23.913 8.93123 24.4024 10.1155 24.4024 11.499C24.4024 12.1698 24.2775 12.7934 24.0276 13.3698C23.7777 13.9462 23.4445 14.465 23.0279 14.9262L28.026 21.8434C28.2551 21.7386 28.479 21.6653 28.6976 21.6233C28.9163 21.5814 29.1506 21.5605 29.4005 21.5605C30.4417 21.5605 31.3268 21.9273 32.0557 22.6609C32.7846 23.3946 33.149 24.2854 33.149 25.3335C33.149 26.3816 32.7846 27.2724 32.0557 28.0061C31.3268 28.7397 30.4417 29.1066 29.4005 29.1066C28.3592 29.1066 27.4741 28.7397 26.7453 28.0061C26.0164 27.2724 25.6519 26.3816 25.6519 25.3335C25.6519 24.8724 25.73 24.4427 25.8862 24.0444C26.0424 23.6461 26.2559 23.2793 26.5266 22.9439L21.5285 16.0581C21.3411 16.1629 21.1485 16.2415 20.9506 16.2939C20.7528 16.3463 20.5497 16.3935 20.3415 16.4354V21.6862C21.1537 21.8958 21.8253 22.336 22.3563 23.0068C22.8874 23.6776 23.1529 24.4531 23.1529 25.3335C23.1529 26.3816 22.7885 27.2724 22.0596 28.0061C21.3307 28.7397 20.4456 29.1066 19.4043 29.1066C18.3631 29.1066 17.478 28.7397 16.7491 28.0061C16.0202 27.2724 15.6558 26.3816 15.6558 25.3335C15.6558 24.4531 15.9213 23.6776 16.4524 23.0068C16.9834 22.336 17.655 21.8958 18.4672 21.6862V16.4354C18.259 16.3935 18.0559 16.3463 17.8581 16.2939C17.6602 16.2415 17.4676 16.1629 17.2802 16.0581L12.2821 22.9439C12.5528 23.2793 12.7663 23.6461 12.9225 24.0444C13.0787 24.4427 13.1568 24.8724 13.1568 25.3335C13.1568 26.3816 12.7923 27.2724 12.0634 28.0061C11.3346 28.7397 10.4495 29.1066 9.40822 29.1066ZM9.40822 27.22C9.94967 27.22 10.3974 27.0366 10.7514 26.6698C11.1055 26.303 11.2825 25.8575 11.2825 25.3335C11.2825 24.7885 11.1055 24.3378 10.7514 23.9815C10.3974 23.6252 9.94967 23.447 9.40822 23.447C8.88759 23.447 8.44505 23.6252 8.08061 23.9815C7.71616 24.3378 7.53394 24.7885 7.53394 25.3335C7.53394 25.8575 7.71616 26.303 8.08061 26.6698C8.44505 27.0366 8.88759 27.22 9.40822 27.22ZM19.4043 27.22C19.9458 27.22 20.3935 27.0366 20.7476 26.6698C21.1016 26.303 21.2786 25.8575 21.2786 25.3335C21.2786 24.7885 21.1016 24.3378 20.7476 23.9815C20.3935 23.6252 19.9458 23.447 19.4043 23.447C18.8837 23.447 18.4412 23.6252 18.0767 23.9815C17.7123 24.3378 17.5301 24.7885 17.5301 25.3335C17.5301 25.8575 17.7123 26.303 18.0767 26.6698C18.4412 27.0366 18.8837 27.22 19.4043 27.22ZM29.4005 27.22C29.9419 27.22 30.3897 27.0366 30.7437 26.6698C31.0977 26.303 31.2748 25.8575 31.2748 25.3335C31.2748 24.7885 31.0977 24.3378 30.7437 23.9815C30.3897 23.6252 29.9419 23.447 29.4005 23.447C28.8798 23.447 28.4373 23.6252 28.0729 23.9815C27.7084 24.3378 27.5262 24.7885 27.5262 25.3335C27.5262 25.8575 27.7084 26.303 28.0729 26.6698C28.4373 27.0366 28.8798 27.22 29.4005 27.22ZM19.4043 14.6432C20.279 14.6432 21.0183 14.3393 21.6222 13.7314C22.2262 13.1235 22.5281 12.3794 22.5281 11.499C22.5281 10.6186 22.2262 9.87449 21.6222 9.26661C21.0183 8.65873 20.279 8.35479 19.4043 8.35479C18.5297 8.35479 17.7904 8.65873 17.1865 9.26661C16.5825 9.87449 16.2806 10.6186 16.2806 11.499C16.2806 12.3794 16.5825 13.1235 17.1865 13.7314C17.7904 14.3393 18.5297 14.6432 19.4043 14.6432Z" fill="#2F89FE"/>
</svg>
