<svg width="40" height="40" viewBox="0 0 40 40" fill="none" xmlns="http://www.w3.org/2000/svg">
<circle cx="20" cy="20" r="19" stroke="#2F89FE" stroke-width="2"/>
<path d="M9.875 30C9.375 30 8.9375 29.8184 8.5625 29.4553C8.1875 29.0921 8 28.6684 8 28.1842V13.6579C8 13.1737 8.1875 12.75 8.5625 12.3868C8.9375 12.0237 9.375 11.8421 9.875 11.8421H15.5V8.81579C15.5 8.33158 15.6875 7.90789 16.0625 7.54474C16.4375 7.18158 16.875 7 17.375 7H23.625C24.125 7 24.5625 7.18158 24.9375 7.54474C25.3125 7.90789 25.5 8.33158 25.5 8.81579V11.8421H31.125C31.625 11.8421 32.0625 12.0237 32.4375 12.3868C32.8125 12.75 33 13.1737 33 13.6579V28.1842C33 28.6684 32.8125 29.0921 32.4375 29.4553C32.0625 29.8184 31.625 30 31.125 30H9.875ZM9.875 28.1842H31.125V13.6579H9.875V28.1842ZM17.375 11.8421H23.625V8.81579H17.375V11.8421ZM9.875 28.1842V13.6579V28.1842Z" fill="#2F89FE"/>
</svg>
