<svg width="33" height="32" viewBox="0 0 33 32" fill="none" xmlns="http://www.w3.org/2000/svg">
<path d="M25.8042 24.9333L25.8042 22.2667L7.19583 22.2667L7.19583 24.9333L25.8042 24.9333ZM16.6375 17.3333L16.6375 14.6667L7.19583 14.6667L7.19583 17.3333L16.6375 17.3333ZM22.1375 9.73333L22.1375 7.06667L7.19583 7.06667L7.19583 9.73333L22.1375 9.73333ZM33 29.3333C33 30.0444 32.725 30.6667 32.175 31.2C31.625 31.7333 30.9833 32 30.25 32L2.75 32C2.01667 32 1.375 31.7333 0.825 31.2C0.275 30.6667 2.33198e-08 30.0444 3.17997e-08 29.3333L3.49797e-07 2.66667C3.58276e-07 1.95555 0.275 1.33333 0.825 0.800001C1.375 0.266668 2.01667 2.40485e-08 2.75 3.27934e-08L30.25 3.60728e-07C30.9833 3.69473e-07 31.625 0.266669 32.175 0.800002C32.725 1.33333 33 1.95556 33 2.66667L33 29.3333ZM30.25 29.3333L30.25 2.66667L2.75 2.66667L2.75 29.3333L30.25 29.3333ZM2.75 29.3333L30.25 29.3333L2.75 29.3333Z" fill="#2F89FE"/>
</svg>
