<svg width="32" height="32" viewBox="0 0 32 32" fill="none" xmlns="http://www.w3.org/2000/svg">
<circle cx="16" cy="16" r="15" stroke="#2F89FE" stroke-width="2"/>
<path d="M24.69 25.9309C22.4464 25.9309 20.2165 25.3792 18.0004 24.2757C15.7843 23.1723 13.7935 21.7378 12.028 19.9723C10.2624 18.2068 8.82796 16.216 7.72451 13.9999C6.62106 11.7838 6.06934 9.55391 6.06934 7.31023C6.06934 6.9608 6.18888 6.66655 6.42796 6.42747C6.66704 6.18839 6.96129 6.06885 7.31072 6.06885H11.1728C11.4303 6.06885 11.6555 6.1562 11.8486 6.33092C12.0418 6.50563 12.1659 6.74011 12.2211 7.03436L12.9659 10.5102C13.0027 10.7677 12.9981 11.0022 12.9521 11.2137C12.9061 11.4252 12.8096 11.6045 12.6624 11.7516L9.90382 14.5378C10.9337 16.2482 12.0877 17.7378 13.3659 19.0068C14.644 20.2757 16.0923 21.3516 17.7107 22.2344L20.3314 19.5309C20.5153 19.3286 20.7268 19.1861 20.9659 19.1033C21.205 19.0206 21.444 19.0068 21.6831 19.062L24.9659 19.7792C25.2418 19.8344 25.4716 19.9723 25.6555 20.193C25.8395 20.4137 25.9314 20.6711 25.9314 20.9654V24.6895C25.9314 25.039 25.8119 25.3332 25.5728 25.5723C25.3337 25.8114 25.0395 25.9309 24.69 25.9309ZM9.07623 13.0206L11.3107 10.7585L10.6762 7.72402H7.72451C7.72451 8.44126 7.83485 9.22747 8.05554 10.0826C8.27623 10.9378 8.61646 11.9171 9.07623 13.0206ZM19.2555 23.0344C20.0096 23.3838 20.828 23.6688 21.7107 23.8895C22.5935 24.1102 23.4486 24.239 24.2762 24.2757V21.324L21.4349 20.7447L19.2555 23.0344Z" fill="#2F89FE"/>
</svg>
